<svg xmlns="http://www.w3.org/2000/svg" viewBox="0 0 1440 320"><path fill="#273036" fill-opacity="1" d="M0,0L30,0C60,0,120,0,180,5.3C240,11,300,21,360,53.3C420,85,480,139,540,144C600,149,660,107,720,101.3C780,96,840,128,900,122.7C960,117,1020,75,1080,101.3C1140,128,1200,224,1260,245.3C1320,267,1380,213,1410,186.7L1440,160L1440,0L1410,0C1380,0,1320,0,1260,0C1200,0,1140,0,1080,0C1020,0,960,0,900,0C840,0,780,0,720,0C660,0,600,0,540,0C480,0,420,0,360,0C300,0,240,0,180,0C120,0,60,0,30,0L0,0Z"></path></svg>